<svg xmlns="http://www.w3.org/2000/svg" width="512" height="512" viewBox="0 0 512 512">
<g>
<path d="M 486.61 512.00 L 26.39 512.00 L 21.21 509.42 C14.85,506.25 8.68,499.44 6.58,493.27 C4.24,486.43 4.23,406.63 6.55,399.79 C8.69,393.53 14.40,387.19 20.44,384.37 C25.09,382.21 26.80,382.02 41.69,382.01 C57.30,382.00 57.94,382.08 59.44,384.22 C61.65,387.38 61.38,390.45 58.59,393.69 C56.19,396.49 56.13,396.50 41.93,396.83 C31.10,397.08 27.12,397.53 25.29,398.73 C20.07,402.15 20.00,402.76 20.00,446.50 L 20.00 446.86 C20.00,482.93 20.00,489.66 23.36,492.96 C24.15,493.73 25.11,494.32 26.30,495.04 C29.38,496.92 31.76,496.99 90.50,496.99 C149.12,496.99 151.61,496.91 154.43,495.05 C155.41,494.41 156.21,493.90 156.87,493.24 C159.93,490.20 159.93,484.08 159.96,447.74 L 159.96 446.28 L 160.00 404.07 L 156.93 400.57 L 153.86 397.08 L 86.16 396.50 L 83.58 394.08 C80.64,391.31 80.24,387.52 82.56,384.22 L 84.11 382.00 L 155.77 382.00 L 161.12 384.79 C167.20,387.97 172.42,394.15 174.01,400.04 C174.71,402.65 174.98,419.31 174.79,448.75 L 174.50 493.50 L 171.75 498.18 C168.45,503.79 163.03,508.46 157.54,510.41 C153.90,511.70 157.19,511.85 191.00,511.90 L 228.50 511.96 L 224.31 510.05 C217.64,507.03 211.36,500.57 209.04,494.37 C207.02,488.98 207.00,487.41 207.00,334.14 C207.00,324.67 207.00,315.74 207.00,307.34 C206.98,181.96 206.98,173.05 211.34,167.69 C211.97,166.92 212.68,166.22 213.50,165.27 C215.45,162.99 219.40,159.97 222.28,158.57 L 227.50 156.02 L 487.98 155.96 L 492.74 158.39 C498.76,161.45 502.28,165.16 505.20,171.50 L 507.50 176.50 L 507.80 331.00 C508.07,472.07 507.95,486.04 506.44,491.73 C504.40,499.41 499.15,505.75 491.79,509.42 L 486.61 512.00 ZM 228.30 495.04 C231.43,496.95 234.30,496.99 357.60,497.00 L 483.70 497.00 L 487.10 494.72 C489.04,493.41 491.01,490.95 491.69,488.97 C493.27,484.38 493.53,184.45 491.96,178.79 C491.36,176.65 489.72,174.23 488.06,173.04 C485.21,171.01 484.49,171.00 357.32,171.00 C240.72,171.00 229.24,171.14 227.12,172.63 C226.60,172.99 226.13,173.25 225.72,173.57 C221.99,176.42 221.99,184.14 222.00,314.00 C222.00,320.37 222.00,327.04 222.00,334.02 C222.00,345.19 222.00,355.57 222.00,365.21 C221.97,482.40 221.97,491.20 225.99,493.81 C226.65,494.24 227.41,494.50 228.30,495.04 ZM 433.50 458.56 C428.77,460.36 424.75,460.48 360.00,460.64 C322.33,460.74 289.53,460.42 287.13,459.94 C277.01,457.91 268.06,450.74 263.68,441.18 C260.72,434.70 260.71,423.32 263.66,416.88 C266.69,410.26 272.31,404.49 278.84,401.28 L 284.50 398.50 L 354.43 398.22 C402.53,398.02 426.03,398.28 429.67,399.04 C439.52,401.08 449.52,410.10 452.14,419.29 C453.90,425.45 453.66,433.74 451.54,439.99 C449.13,447.10 440.65,455.83 433.50,458.56 ZM 155.67 343.50 C148.60,345.61 31.90,345.62 25.17,343.52 C16.53,340.82 9.56,334.04 6.44,325.30 C5.40,322.37 5.08,313.05 5.04,284.70 L 5.00 247.91 L 7.45 245.45 C10.40,242.51 13.93,242.31 17.14,244.91 L 19.50 246.82 L 20.50 321.84 L 23.00 324.55 C23.73,325.34 24.34,326.02 25.03,326.60 C29.08,330.00 35.99,330.00 87.85,330.00 L 90.50 330.00 L 92.11 330.00 C145.39,330.00 152.43,330.00 156.12,326.49 C156.72,325.92 157.23,325.26 157.83,324.49 L 160.00 321.73 L 160.00 250.27 C160.00,185.39 159.85,178.55 158.33,175.99 C157.42,174.44 155.60,172.68 154.29,172.09 C152.66,171.34 132.36,171.00 89.92,171.00 C34.02,171.00 27.68,171.16 25.41,172.65 C20.52,175.86 20.00,178.37 20.00,199.00 C20.00,217.94 19.98,218.11 17.55,220.55 C14.42,223.67 10.58,223.67 7.45,220.55 C5.02,218.11 5.00,217.95 5.00,198.73 C5.00,176.49 5.92,171.79 11.59,165.17 C13.59,162.83 17.44,159.80 20.16,158.42 L 25.09 155.92 L 90.29 155.97 L 155.50 156.02 L 160.71 158.57 C166.39,161.34 171.53,167.02 173.60,172.83 C174.64,175.73 174.92,191.94 174.95,250.00 L 174.98 323.50 L 172.63 328.54 C169.60,335.05 162.23,341.56 155.67,343.50 ZM 505.09 120.13 C502.85,121.95 495.63,122.00 256.34,122.00 L 9.91 122.00 L 7.45 119.55 C6.10,118.20 5.00,115.93 5.00,114.50 C5.00,113.07 6.10,110.80 7.45,109.45 L 9.91 107.00 L 256.34 107.00 C495.63,107.00 502.85,107.05 505.09,108.87 C508.30,111.47 508.30,117.53 505.09,120.13 ZM 374.00 365.45 C366.84,367.12 348.98,367.37 342.50,365.88 C315.83,359.75 294.77,342.42 284.59,318.23 C280.74,309.08 280.21,303.79 282.88,301.12 C285.38,298.62 291.13,298.27 293.34,300.48 C294.16,301.30 295.79,304.86 296.96,308.38 C305.55,334.18 330.28,352.00 357.52,352.00 C375.50,352.00 388.86,346.32 402.02,333.08 C411.74,323.31 415.80,316.14 419.16,302.82 C423.08,287.34 420.35,269.63 411.82,255.22 C404.76,243.28 390.45,232.14 376.50,227.72 C366.52,224.56 348.48,224.56 338.50,227.72 C328.65,230.84 319.61,236.42 312.02,244.06 C305.01,251.11 301.08,257.49 297.05,268.39 C293.21,278.77 288.79,281.18 283.18,275.95 C280.32,273.29 280.41,269.62 283.54,261.27 C290.78,242.00 303.88,227.55 322.50,218.30 C335.41,211.88 341.40,210.56 357.50,210.56 C373.52,210.56 379.56,211.88 392.34,218.17 C411.63,227.65 424.89,242.93 432.15,264.00 C435.23,272.94 435.43,274.33 435.46,287.50 C435.49,299.13 435.11,302.82 433.24,309.30 C424.93,337.99 403.16,358.63 374.00,365.45 ZM 287.66 444.54 C292.67,446.33 420.12,446.65 426.45,444.89 C440.72,440.93 442.83,420.91 429.62,414.91 C425.72,413.15 421.79,413.04 357.50,413.04 C293.32,413.04 289.27,413.15 285.40,414.91 C272.14,420.93 273.55,439.51 287.66,444.54 ZM 26.37 57.14 C32.14,60.77 41.56,58.08 44.74,51.90 C45.61,50.21 45.97,42.88 45.99,27.06 C46.00,5.42 46.08,4.55 48.17,2.31 L 50.35 0.00 L 146.65 0.00 L 148.83 2.31 C150.02,3.59 151.01,5.72 151.02,7.06 C151.05,10.18 126.18,69.43 123.75,72.04 C119.77,76.31 112.00,72.72 112.00,66.61 C112.00,64.94 117.22,51.18 123.61,36.03 C136.59,5.25 137.64,3.01 139.90,1.28 C141.17,0.31 135.95,0.06 114.58,0.03 L 87.65 0.00 L 89.83 2.31 C91.97,4.59 92.00,5.14 92.00,36.86 L 92.00 69.09 L 89.55 71.55 C85.68,75.41 80.91,74.47 78.16,69.32 C77.35,67.79 77.00,57.99 77.00,37.00 C77.00,6.33 77.24,4.10 80.91,1.28 C82.19,0.30 79.95,0.06 69.60,0.03 L 56.69 0.00 L 58.60 2.11 C60.36,4.06 60.50,6.03 60.50,29.36 C60.50,53.23 60.39,54.70 58.34,58.50 C51.83,70.54 37.74,76.39 24.52,72.55 C19.86,71.19 17.57,69.72 13.06,65.18 C9.37,61.47 7.00,58.08 6.21,55.38 C5.42,52.68 5.00,43.30 5.00,28.09 L 5.00 4.91 L 9.91 0.00 L 15.85 0.00 L 17.93 2.63 C19.89,5.12 20.00,6.52 20.00,27.91 C20.00,52.81 20.08,53.19 26.37,57.14 ZM 254.62 10.50 C258.76,16.27 262.45,20.99 262.82,20.97 C263.19,20.95 265.98,17.25 269.00,12.74 C272.02,8.23 275.58,3.52 276.90,2.27 L 279.29 0.00 L 502.62 0.00 L 504.73 1.97 C507.68,4.71 508.35,7.51 506.81,10.70 C504.43,15.67 502.59,15.97 474.72,15.99 C446.51,16.00 442.87,15.41 441.02,10.55 C439.95,7.75 440.91,4.15 443.23,2.22 C444.25,1.38 453.02,0.95 473.58,0.75 C476.13,0.72 477.35,0.70 477.35,0.67 C477.35,0.52 443.89,0.34 393.58,0.23 L 284.65 0.00 L 286.83 2.31 C290.18,5.88 289.60,9.77 284.71,16.55 C282.34,19.82 278.47,25.29 276.10,28.70 L 271.78 34.89 L 281.89 49.19 C288.89,59.09 292.00,64.35 292.00,66.29 C292.00,69.73 287.98,74.00 284.73,74.00 C281.48,74.00 279.25,71.67 270.87,59.52 C266.88,53.73 263.14,49.01 262.56,49.03 C261.98,49.05 257.90,54.27 253.50,60.63 C245.35,72.41 243.75,74.00 240.02,74.00 C237.08,74.00 233.00,69.62 233.00,66.48 C233.00,64.78 236.53,58.81 243.00,49.55 C248.50,41.68 253.00,34.96 253.00,34.62 C253.00,34.28 249.18,28.63 244.50,22.06 C235.33,9.17 234.42,6.32 238.17,2.31 L 240.35 0.00 L 247.09 0.00 ZM 190.27 57.52 C196.57,60.26 202.71,58.73 206.91,53.39 C208.89,50.87 209.00,49.54 209.00,27.82 L 209.00 4.91 L 213.91 0.00 L 219.94 0.00 L 222.03 2.83 C224.05,5.56 224.12,6.60 223.81,30.58 L 223.50 55.50 L 220.73 60.22 C215.61,68.92 204.29,74.67 194.07,73.74 C184.56,72.88 176.14,67.50 171.23,59.14 C168.50,54.51 168.50,54.47 168.17,31.65 C167.98,19.08 168.10,7.73 168.43,6.43 C168.76,5.12 170.00,3.14 171.20,2.03 L 173.38 0.00 L 178.65 0.00 L 180.83 2.31 C182.92,4.55 183.00,5.41 183.00,27.06 C183.01,47.80 183.16,49.75 185.02,52.81 C186.13,54.63 188.49,56.75 190.27,57.52 ZM 128.93 451.37 L 126.85 454.00 L 90.62 454.00 C63.17,454.00 53.98,453.70 52.74,452.75 C50.09,450.74 48.99,446.66 50.35,443.92 C52.75,439.12 54.04,438.97 91.84,439.24 L 127.18 439.50 L 129.09 441.86 C131.56,444.92 131.51,448.08 128.93,451.37 ZM 505.08 71.08 L 502.15 74.00 L 474.13 74.00 C446.19,74.00 446.10,73.99 443.39,71.66 C440.14,68.86 439.73,64.06 442.49,61.01 C444.24,59.08 445.52,59.00 473.70,59.00 L 503.09 59.00 L 505.55 61.45 C508.78,64.69 508.64,67.51 505.08,71.08 ZM 505.59 41.69 L 503.18 44.50 L 475.34 44.77 C448.96,45.03 447.33,44.94 444.25,43.04 C442.46,41.93 440.95,40.24 440.88,39.26 C440.65,35.74 441.22,33.46 442.75,31.75 C444.17,30.16 446.99,30.00 474.08,30.00 L 503.85 30.00 L 505.93 32.63 C508.63,36.06 508.54,38.26 505.59,41.69 ZM 136.09 215.14 C134.20,217.48 133.97,217.50 111.84,217.75 C89.22,218.00 87.07,217.72 84.25,214.18 C82.40,211.86 82.72,206.56 84.83,204.65 C86.42,203.21 89.73,203.00 110.67,203.00 C132.67,203.00 134.83,203.15 136.35,204.83 C138.56,207.28 138.44,212.24 136.09,215.14 ZM 136.09 255.14 C134.20,257.48 133.97,257.50 111.84,257.75 C89.22,258.00 87.07,257.72 84.25,254.18 C82.40,251.86 82.72,246.56 84.83,244.65 C86.42,243.21 89.73,243.00 110.67,243.00 C132.67,243.00 134.83,243.15 136.35,244.83 C138.56,247.28 138.44,252.24 136.09,255.14 ZM 136.09 295.14 C134.20,297.48 133.97,297.50 111.84,297.75 C89.07,298.00 87.12,297.74 84.28,294.07 C82.45,291.70 82.75,286.54 84.83,284.65 C86.42,283.21 89.73,283.00 110.67,283.00 C132.67,283.00 134.83,283.15 136.35,284.83 C138.56,287.28 138.44,292.24 136.09,295.14 ZM 59.24 254.95 C57.26,257.39 50.82,258.54 47.36,257.06 C42.28,254.89 40.50,248.50 44.00,245.00 C47.03,241.97 57.27,242.12 59.44,245.22 C61.50,248.16 61.42,252.26 59.24,254.95 ZM 59.24 214.95 C57.26,217.39 50.82,218.54 47.36,217.06 C42.28,214.89 40.50,208.50 44.00,205.00 C47.03,201.97 57.27,202.12 59.44,205.22 C61.50,208.16 61.42,212.26 59.24,214.95 ZM 59.25 294.87 C57.26,297.24 50.65,298.45 47.36,297.05 C42.28,294.90 40.50,288.50 44.00,285.00 C46.75,282.25 56.90,282.13 59.35,284.83 C61.51,287.22 61.46,292.23 59.25,294.87 Z" fill="rgb(0,0,0)"/>
<path d="M 473.58 0.75 C455.48,0.93 446.52,1.28 443.93,1.94 C444.27,1.70 444.62,1.48 445.00,1.29 C445.89,0.85 443.61,0.55 435.31,0.35 C461.54,0.45 477.35,0.57 477.35,0.67 C477.35,0.70 476.13,0.72 473.58,0.75 ZM 441.00 10.51 L 440.98 10.46 C440.62,9.50 440.51,8.48 440.61,7.48 C440.53,8.52 440.65,9.56 441.00,10.51 Z" fill="rgb(36,36,36)"/>
<path d="M 443.47 2.09 L 444.57 0.86 C445.23,0.99 445.32,1.13 445.00,1.29 C444.62,1.48 444.27,1.70 443.93,1.94 C443.75,1.99 443.59,2.04 443.47,2.09 ZM 440.96 5.71 C440.78,6.29 440.66,6.88 440.61,7.48 C440.52,8.37 440.60,9.26 440.87,10.12 C440.35,8.54 440.35,7.16 440.96,5.71 Z" fill="rgb(101,101,101)"/>
<path d="M 0.00 256.00 L 0.00 0.00 L 4.95 -0.00 L 9.91 -0.00 L 7.45 2.45 L 5.00 4.91 L 5.00 28.09 C5.00,43.30 5.42,52.68 6.21,55.38 C7.00,58.08 9.37,61.47 13.06,65.18 C17.57,69.72 19.86,71.19 24.52,72.55 C37.74,76.39 51.83,70.54 58.34,58.50 C60.39,54.70 60.50,53.23 60.50,29.36 C60.50,6.03 60.36,4.06 58.60,2.11 L 56.69 0.00 L 69.60 0.03 C79.95,0.06 82.19,0.30 80.91,1.28 C77.24,4.10 77.00,6.33 77.00,37.00 C77.00,57.99 77.35,67.79 78.16,69.32 C80.91,74.47 85.68,75.41 89.55,71.55 L 92.00 69.09 L 92.00 36.86 C92.00,5.14 91.97,4.59 89.83,2.31 L 87.65 0.00 L 114.58 0.03 C135.95,0.06 141.17,0.31 139.90,1.28 C137.64,3.01 136.59,5.25 123.61,36.03 C117.22,51.18 112.00,64.94 112.00,66.61 C112.00,72.72 119.77,76.31 123.75,72.04 C126.18,69.43 151.05,10.18 151.02,7.06 C151.01,5.72 150.02,3.59 148.83,2.31 L 146.65 0.00 L 160.01 0.00 L 173.38 0.00 L 171.20 2.03 C170.00,3.14 168.76,5.12 168.43,6.43 C168.10,7.73 167.98,19.08 168.17,31.65 C168.50,54.47 168.50,54.51 171.23,59.14 C176.14,67.50 184.56,72.88 194.07,73.74 C204.29,74.67 215.61,68.92 220.73,60.22 L 223.50 55.50 L 223.81 30.58 C224.12,6.60 224.05,5.56 222.03,2.83 L 219.94 0.00 L 230.14 0.00 L 240.35 0.00 L 238.17 2.31 C234.42,6.32 235.33,9.17 244.50,22.06 C249.18,28.63 253.00,34.28 253.00,34.62 C253.00,34.96 248.50,41.68 243.00,49.55 C236.53,58.81 233.00,64.78 233.00,66.48 C233.00,69.62 237.08,74.00 240.02,74.00 C243.75,74.00 245.35,72.41 253.50,60.63 C257.90,54.27 261.98,49.05 262.56,49.03 C263.14,49.01 266.88,53.73 270.87,59.52 C279.25,71.67 281.48,74.00 284.73,74.00 C287.98,74.00 292.00,69.73 292.00,66.29 C292.00,64.35 288.89,59.09 281.89,49.19 L 271.78 34.89 L 276.10 28.70 C278.47,25.29 282.34,19.82 284.71,16.55 C289.60,9.77 290.18,5.88 286.83,2.31 L 284.65 0.00 L 365.00 0.00 L 445.35 0.00 L 443.32 2.25 C440.51,5.37 439.90,7.59 441.02,10.56 C442.87,15.41 446.53,16.00 474.72,15.99 C502.59,15.97 504.43,15.67 506.81,10.70 C508.35,7.51 507.68,4.71 504.73,1.97 L 502.62 0.00 L 507.31 0.00 L 512.00 0.00 L 512.00 256.00 L 512.00 512.00 L 499.30 512.00 L 486.61 512.00 L 491.79 509.42 C499.15,505.75 504.40,499.41 506.44,491.73 C507.95,486.04 508.07,472.07 507.80,331.00 L 507.50 176.50 L 505.20 171.50 C502.28,165.16 498.76,161.45 492.74,158.39 L 487.98 155.96 L 357.74 155.99 L 227.50 156.02 L 222.28 158.57 C219.40,159.97 215.45,162.99 213.50,165.27 C206.60,173.34 207.00,162.87 207.00,334.14 C207.00,487.41 207.02,488.98 209.04,494.37 C211.36,500.57 217.64,507.03 224.31,510.05 L 228.50 511.96 L 191.00 511.90 C157.19,511.85 153.90,511.70 157.54,510.41 C163.03,508.46 168.45,503.79 171.75,498.18 L 174.50 493.50 L 174.79 448.75 C174.98,419.31 174.71,402.65 174.01,400.04 C172.42,394.15 167.20,387.97 161.12,384.79 L 155.77 382.00 L 119.94 382.00 L 84.11 382.00 L 82.56 384.22 C80.24,387.52 80.64,391.31 83.58,394.08 L 86.16 396.50 L 120.01 396.79 L 153.86 397.08 L 156.93 400.57 L 160.00 404.07 L 159.96 446.28 C159.93,491.93 159.99,491.39 154.43,495.05 C151.61,496.91 149.12,496.99 90.50,496.99 C31.76,496.99 29.38,496.92 26.30,495.04 C19.98,491.19 20.00,491.32 20.00,446.50 C20.00,402.76 20.07,402.15 25.29,398.73 C27.12,397.53 31.10,397.08 41.93,396.83 C56.13,396.50 56.19,396.49 58.59,393.69 C61.38,390.45 61.65,387.38 59.44,384.22 C57.94,382.08 57.30,382.00 41.69,382.01 C26.80,382.02 25.09,382.21 20.44,384.37 C14.40,387.19 8.69,393.53 6.55,399.79 C4.23,406.63 4.24,486.43 6.58,493.27 C8.68,499.44 14.85,506.25 21.21,509.42 L 26.39 512.00 L 13.20 512.00 L 0.00 512.00 L 0.00 256.00 ZM 128.93 451.37 C131.51,448.08 131.56,444.92 129.09,441.86 L 127.18 439.50 L 91.84 439.24 C54.04,438.97 52.75,439.12 50.35,443.92 C48.99,446.66 50.09,450.74 52.74,452.75 C53.98,453.70 63.17,454.00 90.62,454.00 L 126.85 454.00 L 128.93 451.37 ZM 155.67 343.50 C162.23,341.56 169.60,335.05 172.63,328.54 L 174.98 323.50 L 174.95 250.00 C174.92,191.94 174.64,175.73 173.60,172.83 C171.53,167.02 166.39,161.34 160.71,158.57 L 155.50 156.02 L 90.29 155.97 L 25.09 155.92 L 20.16 158.42 C17.44,159.80 13.59,162.83 11.59,165.17 C5.92,171.79 5.00,176.49 5.00,198.73 C5.00,217.95 5.02,218.11 7.45,220.55 C10.58,223.67 14.42,223.67 17.55,220.55 C19.98,218.11 20.00,217.94 20.00,199.00 C20.00,178.37 20.52,175.86 25.41,172.65 C27.68,171.16 34.02,171.00 89.92,171.00 C132.36,171.00 152.66,171.34 154.29,172.09 C155.60,172.68 157.42,174.44 158.33,175.99 C159.85,178.55 160.00,185.39 160.00,250.27 L 160.00 321.73 L 157.83 324.49 C153.46,330.05 154.04,330.00 90.50,330.00 C27.12,330.00 28.10,330.08 23.00,324.55 L 20.50 321.84 L 20.00 284.33 L 19.50 246.82 L 17.14 244.91 C13.93,242.31 10.40,242.51 7.45,245.45 L 5.00 247.91 L 5.04 284.70 C5.08,313.05 5.40,322.37 6.44,325.30 C9.56,334.04 16.53,340.82 25.17,343.52 C31.90,345.62 148.60,345.61 155.67,343.50 ZM 59.25 294.87 C61.46,292.23 61.51,287.22 59.35,284.83 C56.90,282.13 46.75,282.25 44.00,285.00 C40.50,288.50 42.28,294.90 47.36,297.05 C50.65,298.45 57.26,297.24 59.25,294.87 ZM 136.09 295.14 C138.44,292.24 138.56,287.28 136.35,284.83 C134.83,283.15 132.67,283.00 110.67,283.00 C89.73,283.00 86.42,283.21 84.83,284.65 C82.75,286.54 82.45,291.70 84.28,294.07 C87.12,297.74 89.07,298.00 111.84,297.75 C133.97,297.50 134.20,297.48 136.09,295.14 ZM 59.24 254.95 C61.42,252.26 61.50,248.16 59.44,245.22 C57.27,242.12 47.03,241.97 44.00,245.00 C40.50,248.50 42.28,254.89 47.36,257.06 C50.82,258.54 57.26,257.39 59.24,254.95 ZM 136.09 255.14 C138.44,252.24 138.56,247.28 136.35,244.83 C134.83,243.15 132.67,243.00 110.67,243.00 C89.73,243.00 86.42,243.21 84.83,244.65 C82.72,246.56 82.40,251.86 84.25,254.18 C87.07,257.72 89.22,258.00 111.84,257.75 C133.97,257.50 134.20,257.48 136.09,255.14 ZM 59.24 214.95 C61.42,212.26 61.50,208.16 59.44,205.22 C57.27,202.12 47.03,201.97 44.00,205.00 C40.50,208.50 42.28,214.89 47.36,217.06 C50.82,218.54 57.26,217.39 59.24,214.95 ZM 136.09 215.14 C138.44,212.24 138.56,207.28 136.35,204.83 C134.83,203.15 132.67,203.00 110.67,203.00 C89.73,203.00 86.42,203.21 84.83,204.65 C82.72,206.56 82.40,211.86 84.25,214.18 C87.07,217.72 89.22,218.00 111.84,217.75 C133.97,217.50 134.20,217.48 136.09,215.14 ZM 505.09 120.13 C508.30,117.53 508.30,111.47 505.09,108.87 C502.85,107.05 495.63,107.00 256.34,107.00 L 9.91 107.00 L 7.45 109.45 C6.10,110.80 5.00,113.07 5.00,114.50 C5.00,115.93 6.10,118.20 7.45,119.55 L 9.91 122.00 L 256.34 122.00 C495.63,122.00 502.85,121.95 505.09,120.13 ZM 505.08 71.08 C508.64,67.51 508.78,64.69 505.55,61.45 L 503.09 59.00 L 473.70 59.00 C445.52,59.00 444.24,59.08 442.49,61.01 C439.73,64.06 440.14,68.86 443.39,71.66 C446.10,73.99 446.19,74.00 474.13,74.00 L 502.15 74.00 L 505.08 71.08 ZM 505.59 41.69 C508.54,38.26 508.63,36.06 505.93,32.63 L 503.85 30.00 L 474.08 30.00 C446.99,30.00 444.17,30.16 442.75,31.75 C441.22,33.46 440.65,35.74 440.88,39.26 C440.95,40.24 442.46,41.93 444.25,43.04 C447.33,44.94 448.96,45.03 475.34,44.77 L 503.18 44.50 L 505.59 41.69 ZM 228.30 495.04 C221.52,490.91 222.00,503.10 222.00,334.02 C222.00,168.95 221.76,176.38 227.12,172.63 C229.24,171.14 240.72,171.00 357.32,171.00 C484.49,171.00 485.21,171.01 488.06,173.04 C489.72,174.23 491.36,176.65 491.96,178.79 C493.53,184.45 493.27,484.38 491.69,488.97 C491.01,490.95 489.04,493.41 487.10,494.72 L 483.70 497.00 L 357.60 497.00 C234.30,496.99 231.43,496.95 228.30,495.04 ZM 433.50 458.56 C440.65,455.83 449.13,447.10 451.54,439.99 C453.66,433.74 453.90,425.45 452.14,419.29 C449.52,410.10 439.52,401.08 429.67,399.04 C426.03,398.28 402.53,398.02 354.43,398.22 L 284.50 398.50 L 278.84 401.28 C272.31,404.49 266.69,410.26 263.66,416.88 C260.71,423.32 260.72,434.70 263.68,441.18 C268.06,450.74 277.01,457.91 287.13,459.94 C289.53,460.42 322.33,460.74 360.00,460.64 C424.75,460.48 428.77,460.36 433.50,458.56 ZM 374.00 365.45 C403.16,358.63 424.93,337.99 433.24,309.30 C435.11,302.82 435.49,299.13 435.46,287.50 C435.43,274.33 435.23,272.94 432.15,264.00 C424.89,242.93 411.63,227.65 392.34,218.17 C379.56,211.88 373.52,210.56 357.50,210.56 C341.40,210.56 335.41,211.88 322.50,218.30 C303.88,227.55 290.78,242.00 283.54,261.27 C280.41,269.62 280.32,273.29 283.18,275.95 C288.79,281.18 293.21,278.77 297.05,268.39 C301.08,257.49 305.01,251.11 312.02,244.06 C319.61,236.42 328.65,230.84 338.50,227.72 C348.48,224.56 366.52,224.56 376.50,227.72 C390.45,232.14 404.76,243.28 411.82,255.22 C420.35,269.63 423.08,287.34 419.16,302.82 C415.80,316.14 411.74,323.31 402.02,333.08 C388.86,346.32 375.50,352.00 357.52,352.00 C330.28,352.00 305.55,334.18 296.96,308.38 C295.79,304.86 294.16,301.30 293.34,300.48 C291.13,298.27 285.38,298.62 282.88,301.12 C280.21,303.79 280.74,309.08 284.59,318.23 C294.77,342.42 315.83,359.75 342.50,365.88 C348.98,367.37 366.84,367.12 374.00,365.45 ZM 26.37 57.14 C20.08,53.19 20.00,52.81 20.00,27.91 C20.00,6.52 19.89,5.12 17.93,2.63 L 15.85 -0.00 L 33.10 -0.00 L 50.35 0.00 L 48.17 2.31 C46.08,4.55 46.00,5.42 45.99,27.06 C45.97,42.88 45.61,50.21 44.74,51.90 C41.56,58.08 32.14,60.77 26.37,57.14 ZM 190.27 57.52 C188.49,56.75 186.13,54.63 185.02,52.81 C183.16,49.75 183.01,47.80 183.00,27.06 C183.00,5.41 182.92,4.55 180.83,2.31 L 178.65 0.00 L 196.28 -0.00 L 213.91 -0.00 L 211.45 2.45 L 209.00 4.91 L 209.00 27.82 C209.00,49.54 208.89,50.87 206.91,53.39 C202.71,58.73 196.57,60.26 190.27,57.52 ZM 254.62 10.50 L 247.09 -0.00 L 263.19 0.00 L 279.29 0.00 L 276.90 2.27 C275.58,3.52 272.02,8.23 269.00,12.74 C265.98,17.25 263.19,20.95 262.82,20.97 C262.45,20.99 258.76,16.27 254.62,10.50 ZM 287.66 444.54 C273.55,439.51 272.14,420.93 285.40,414.91 C289.27,413.15 293.32,413.04 357.50,413.04 C421.79,413.04 425.72,413.15 429.62,414.91 C442.83,420.91 440.72,440.93 426.45,444.89 C420.12,446.65 292.67,446.33 287.66,444.54 Z" fill="rgb(254,254,254)"/>
</g>
</svg>